<?xml version="1.0" encoding="utf-8" standalone="no"?>
<!DOCTYPE svg PUBLIC "-//W3C//DTD SVG 1.1//EN"
  "http://www.w3.org/Graphics/SVG/1.1/DTD/svg11.dtd">
<!-- Created with matplotlib (https://matplotlib.org/) -->
<svg height="381.2075pt" version="1.1" viewBox="0 0 527.645 381.2075" width="527.645pt" xmlns="http://www.w3.org/2000/svg" xmlns:xlink="http://www.w3.org/1999/xlink">
 <metadata>
  <rdf:RDF xmlns:cc="http://creativecommons.org/ns#" xmlns:dc="http://purl.org/dc/elements/1.1/" xmlns:rdf="http://www.w3.org/1999/02/22-rdf-syntax-ns#">
   <cc:Work>
    <dc:type rdf:resource="http://purl.org/dc/dcmitype/StillImage"/>
    <dc:date>2022-02-10T16:29:00.612659</dc:date>
    <dc:format>image/svg+xml</dc:format>
    <dc:creator>
     <cc:Agent>
      <dc:title>Matplotlib v3.3.4, https://matplotlib.org/</dc:title>
     </cc:Agent>
    </dc:creator>
   </cc:Work>
  </rdf:RDF>
 </metadata>
 <defs>
  <style type="text/css">*{stroke-linecap:butt;stroke-linejoin:round;}</style>
 </defs>
 <g id="figure_1">
  <g id="patch_1">
   <path d="M 0 381.2075 
L 527.645 381.2075 
L 527.645 0 
L 0 0 
z
" style="fill:none;"/>
  </g>
  <g id="axes_1">
   <g id="patch_2">
    <path d="M 68.805 333.36 
L 347.805 333.36 
L 347.805 7.2 
L 68.805 7.2 
z
" style="fill:#ffffff;"/>
   </g>
   <g id="matplotlib.axis_1">
    <g id="xtick_1">
     <g id="line2d_1">
      <path clip-path="url(#p05d58cd586)" d="M 81.486818 333.36 
L 81.486818 7.2 
" style="fill:none;stroke:#b0b0b0;stroke-linecap:square;stroke-width:0.8;"/>
     </g>
     <g id="line2d_2">
      <defs>
       <path d="M 0 0 
L 0 3.5 
" id="m9813f2f219" style="stroke:#000000;stroke-width:0.8;"/>
      </defs>
      <g>
       <use style="stroke:#000000;stroke-width:0.8;" x="81.486818" xlink:href="#m9813f2f219" y="333.36"/>
      </g>
     </g>
     <g id="text_1">
      <!-- 0.0 -->
      <g transform="translate(70.366818 351.8125)scale(0.16 -0.16)">
       <defs>
        <path d="M 4.15625 35.296875 
Q 4.15625 48 6.765625 55.734375 
Q 9.375 63.484375 14.515625 67.671875 
Q 19.671875 71.875 27.484375 71.875 
Q 33.25 71.875 37.59375 69.546875 
Q 41.9375 67.234375 44.765625 62.859375 
Q 47.609375 58.5 49.21875 52.21875 
Q 50.828125 45.953125 50.828125 35.296875 
Q 50.828125 22.703125 48.234375 14.96875 
Q 45.65625 7.234375 40.5 3 
Q 35.359375 -1.21875 27.484375 -1.21875 
Q 17.140625 -1.21875 11.234375 6.203125 
Q 4.15625 15.140625 4.15625 35.296875 
z
M 13.1875 35.296875 
Q 13.1875 17.671875 17.3125 11.828125 
Q 21.4375 6 27.484375 6 
Q 33.546875 6 37.671875 11.859375 
Q 41.796875 17.71875 41.796875 35.296875 
Q 41.796875 52.984375 37.671875 58.78125 
Q 33.546875 64.59375 27.390625 64.59375 
Q 21.34375 64.59375 17.71875 59.46875 
Q 13.1875 52.9375 13.1875 35.296875 
z
" id="ArialMT-48"/>
        <path d="M 9.078125 0 
L 9.078125 10.015625 
L 19.09375 10.015625 
L 19.09375 0 
z
" id="ArialMT-46"/>
       </defs>
       <use xlink:href="#ArialMT-48"/>
       <use x="55.615234" xlink:href="#ArialMT-46"/>
       <use x="83.398438" xlink:href="#ArialMT-48"/>
      </g>
     </g>
    </g>
    <g id="xtick_2">
     <g id="line2d_3">
      <path clip-path="url(#p05d58cd586)" d="M 173.14395 333.36 
L 173.14395 7.2 
" style="fill:none;stroke:#b0b0b0;stroke-linecap:square;stroke-width:0.8;"/>
     </g>
     <g id="line2d_4">
      <g>
       <use style="stroke:#000000;stroke-width:0.8;" x="173.14395" xlink:href="#m9813f2f219" y="333.36"/>
      </g>
     </g>
     <g id="text_2">
      <!-- 0.1 -->
      <g transform="translate(162.02395 351.8125)scale(0.16 -0.16)">
       <defs>
        <path d="M 37.25 0 
L 28.46875 0 
L 28.46875 56 
Q 25.296875 52.984375 20.140625 49.953125 
Q 14.984375 46.921875 10.890625 45.40625 
L 10.890625 53.90625 
Q 18.265625 57.375 23.78125 62.296875 
Q 29.296875 67.234375 31.59375 71.875 
L 37.25 71.875 
z
" id="ArialMT-49"/>
       </defs>
       <use xlink:href="#ArialMT-48"/>
       <use x="55.615234" xlink:href="#ArialMT-46"/>
       <use x="83.398438" xlink:href="#ArialMT-49"/>
      </g>
     </g>
    </g>
    <g id="xtick_3">
     <g id="line2d_5">
      <path clip-path="url(#p05d58cd586)" d="M 264.801081 333.36 
L 264.801081 7.2 
" style="fill:none;stroke:#b0b0b0;stroke-linecap:square;stroke-width:0.8;"/>
     </g>
     <g id="line2d_6">
      <g>
       <use style="stroke:#000000;stroke-width:0.8;" x="264.801081" xlink:href="#m9813f2f219" y="333.36"/>
      </g>
     </g>
     <g id="text_3">
      <!-- 0.2 -->
      <g transform="translate(253.681081 351.8125)scale(0.16 -0.16)">
       <defs>
        <path d="M 50.34375 8.453125 
L 50.34375 0 
L 3.03125 0 
Q 2.9375 3.171875 4.046875 6.109375 
Q 5.859375 10.9375 9.828125 15.625 
Q 13.8125 20.3125 21.34375 26.46875 
Q 33.015625 36.03125 37.109375 41.625 
Q 41.21875 47.21875 41.21875 52.203125 
Q 41.21875 57.421875 37.46875 61 
Q 33.734375 64.59375 27.734375 64.59375 
Q 21.390625 64.59375 17.578125 60.78125 
Q 13.765625 56.984375 13.71875 50.25 
L 4.6875 51.171875 
Q 5.609375 61.28125 11.65625 66.578125 
Q 17.71875 71.875 27.9375 71.875 
Q 38.234375 71.875 44.234375 66.15625 
Q 50.25 60.453125 50.25 52 
Q 50.25 47.703125 48.484375 43.546875 
Q 46.734375 39.40625 42.65625 34.8125 
Q 38.578125 30.21875 29.109375 22.21875 
Q 21.1875 15.578125 18.9375 13.203125 
Q 16.703125 10.84375 15.234375 8.453125 
z
" id="ArialMT-50"/>
       </defs>
       <use xlink:href="#ArialMT-48"/>
       <use x="55.615234" xlink:href="#ArialMT-46"/>
       <use x="83.398438" xlink:href="#ArialMT-50"/>
      </g>
     </g>
    </g>
    <g id="text_4">
     <!-- Axial position (m) -->
     <g transform="translate(146.95625 370.64)scale(0.16 -0.16)">
      <defs>
       <path d="M -0.140625 0 
L 27.34375 71.578125 
L 37.546875 71.578125 
L 66.84375 0 
L 56.0625 0 
L 47.703125 21.6875 
L 17.78125 21.6875 
L 9.90625 0 
z
M 20.515625 29.390625 
L 44.78125 29.390625 
L 37.3125 49.21875 
Q 33.890625 58.25 32.234375 64.0625 
Q 30.859375 57.171875 28.375 50.390625 
z
" id="ArialMT-65"/>
       <path d="M 0.734375 0 
L 19.671875 26.953125 
L 2.15625 51.859375 
L 13.140625 51.859375 
L 21.09375 39.703125 
Q 23.34375 36.234375 24.703125 33.890625 
Q 26.859375 37.109375 28.65625 39.59375 
L 37.40625 51.859375 
L 47.90625 51.859375 
L 29.984375 27.4375 
L 49.265625 0 
L 38.484375 0 
L 27.828125 16.109375 
L 25 20.453125 
L 11.375 0 
z
" id="ArialMT-120"/>
       <path d="M 6.640625 61.46875 
L 6.640625 71.578125 
L 15.4375 71.578125 
L 15.4375 61.46875 
z
M 6.640625 0 
L 6.640625 51.859375 
L 15.4375 51.859375 
L 15.4375 0 
z
" id="ArialMT-105"/>
       <path d="M 40.4375 6.390625 
Q 35.546875 2.25 31.03125 0.53125 
Q 26.515625 -1.171875 21.34375 -1.171875 
Q 12.796875 -1.171875 8.203125 3 
Q 3.609375 7.171875 3.609375 13.671875 
Q 3.609375 17.484375 5.34375 20.625 
Q 7.078125 23.78125 9.890625 25.6875 
Q 12.703125 27.59375 16.21875 28.5625 
Q 18.796875 29.25 24.03125 29.890625 
Q 34.671875 31.15625 39.703125 32.90625 
Q 39.75 34.71875 39.75 35.203125 
Q 39.75 40.578125 37.25 42.78125 
Q 33.890625 45.75 27.25 45.75 
Q 21.046875 45.75 18.09375 43.578125 
Q 15.140625 41.40625 13.71875 35.890625 
L 5.125 37.0625 
Q 6.296875 42.578125 8.984375 45.96875 
Q 11.671875 49.359375 16.75 51.1875 
Q 21.828125 53.03125 28.515625 53.03125 
Q 35.15625 53.03125 39.296875 51.46875 
Q 43.453125 49.90625 45.40625 47.53125 
Q 47.359375 45.171875 48.140625 41.546875 
Q 48.578125 39.3125 48.578125 33.453125 
L 48.578125 21.734375 
Q 48.578125 9.46875 49.140625 6.21875 
Q 49.703125 2.984375 51.375 0 
L 42.1875 0 
Q 40.828125 2.734375 40.4375 6.390625 
z
M 39.703125 26.03125 
Q 34.90625 24.078125 25.34375 22.703125 
Q 19.921875 21.921875 17.671875 20.9375 
Q 15.4375 19.96875 14.203125 18.09375 
Q 12.984375 16.21875 12.984375 13.921875 
Q 12.984375 10.40625 15.640625 8.0625 
Q 18.3125 5.71875 23.4375 5.71875 
Q 28.515625 5.71875 32.46875 7.9375 
Q 36.421875 10.15625 38.28125 14.015625 
Q 39.703125 17 39.703125 22.796875 
z
" id="ArialMT-97"/>
       <path d="M 6.390625 0 
L 6.390625 71.578125 
L 15.1875 71.578125 
L 15.1875 0 
z
" id="ArialMT-108"/>
       <path id="ArialMT-32"/>
       <path d="M 6.59375 -19.875 
L 6.59375 51.859375 
L 14.59375 51.859375 
L 14.59375 45.125 
Q 17.4375 49.078125 21 51.046875 
Q 24.5625 53.03125 29.640625 53.03125 
Q 36.28125 53.03125 41.359375 49.609375 
Q 46.4375 46.1875 49.015625 39.953125 
Q 51.609375 33.734375 51.609375 26.3125 
Q 51.609375 18.359375 48.75 11.984375 
Q 45.90625 5.609375 40.453125 2.21875 
Q 35.015625 -1.171875 29 -1.171875 
Q 24.609375 -1.171875 21.109375 0.6875 
Q 17.625 2.546875 15.375 5.375 
L 15.375 -19.875 
z
M 14.546875 25.640625 
Q 14.546875 15.625 18.59375 10.84375 
Q 22.65625 6.0625 28.421875 6.0625 
Q 34.28125 6.0625 38.453125 11.015625 
Q 42.625 15.96875 42.625 26.375 
Q 42.625 36.28125 38.546875 41.203125 
Q 34.46875 46.140625 28.8125 46.140625 
Q 23.1875 46.140625 18.859375 40.890625 
Q 14.546875 35.640625 14.546875 25.640625 
z
" id="ArialMT-112"/>
       <path d="M 3.328125 25.921875 
Q 3.328125 40.328125 11.328125 47.265625 
Q 18.015625 53.03125 27.640625 53.03125 
Q 38.328125 53.03125 45.109375 46.015625 
Q 51.90625 39.015625 51.90625 26.65625 
Q 51.90625 16.65625 48.90625 10.90625 
Q 45.90625 5.171875 40.15625 2 
Q 34.421875 -1.171875 27.640625 -1.171875 
Q 16.75 -1.171875 10.03125 5.8125 
Q 3.328125 12.796875 3.328125 25.921875 
z
M 12.359375 25.921875 
Q 12.359375 15.96875 16.703125 11.015625 
Q 21.046875 6.0625 27.640625 6.0625 
Q 34.1875 6.0625 38.53125 11.03125 
Q 42.875 16.015625 42.875 26.21875 
Q 42.875 35.84375 38.5 40.796875 
Q 34.125 45.75 27.640625 45.75 
Q 21.046875 45.75 16.703125 40.8125 
Q 12.359375 35.890625 12.359375 25.921875 
z
" id="ArialMT-111"/>
       <path d="M 3.078125 15.484375 
L 11.765625 16.84375 
Q 12.5 11.625 15.84375 8.84375 
Q 19.1875 6.0625 25.203125 6.0625 
Q 31.25 6.0625 34.171875 8.515625 
Q 37.109375 10.984375 37.109375 14.3125 
Q 37.109375 17.28125 34.515625 19 
Q 32.71875 20.171875 25.53125 21.96875 
Q 15.875 24.421875 12.140625 26.203125 
Q 8.40625 27.984375 6.46875 31.125 
Q 4.546875 34.28125 4.546875 38.09375 
Q 4.546875 41.546875 6.125 44.5 
Q 7.71875 47.46875 10.453125 49.421875 
Q 12.5 50.921875 16.03125 51.96875 
Q 19.578125 53.03125 23.640625 53.03125 
Q 29.734375 53.03125 34.34375 51.265625 
Q 38.96875 49.515625 41.15625 46.5 
Q 43.359375 43.5 44.1875 38.484375 
L 35.59375 37.3125 
Q 35.015625 41.3125 32.203125 43.546875 
Q 29.390625 45.796875 24.265625 45.796875 
Q 18.21875 45.796875 15.625 43.796875 
Q 13.03125 41.796875 13.03125 39.109375 
Q 13.03125 37.40625 14.109375 36.03125 
Q 15.1875 34.625 17.484375 33.6875 
Q 18.796875 33.203125 25.25 31.453125 
Q 34.578125 28.953125 38.25 27.359375 
Q 41.9375 25.78125 44.03125 22.75 
Q 46.140625 19.734375 46.140625 15.234375 
Q 46.140625 10.84375 43.578125 6.953125 
Q 41.015625 3.078125 36.171875 0.953125 
Q 31.34375 -1.171875 25.25 -1.171875 
Q 15.140625 -1.171875 9.84375 3.03125 
Q 4.546875 7.234375 3.078125 15.484375 
z
" id="ArialMT-115"/>
       <path d="M 25.78125 7.859375 
L 27.046875 0.09375 
Q 23.34375 -0.6875 20.40625 -0.6875 
Q 15.625 -0.6875 12.984375 0.828125 
Q 10.359375 2.34375 9.28125 4.8125 
Q 8.203125 7.28125 8.203125 15.1875 
L 8.203125 45.015625 
L 1.765625 45.015625 
L 1.765625 51.859375 
L 8.203125 51.859375 
L 8.203125 64.703125 
L 16.9375 69.96875 
L 16.9375 51.859375 
L 25.78125 51.859375 
L 25.78125 45.015625 
L 16.9375 45.015625 
L 16.9375 14.703125 
Q 16.9375 10.9375 17.40625 9.859375 
Q 17.875 8.796875 18.921875 8.15625 
Q 19.96875 7.515625 21.921875 7.515625 
Q 23.390625 7.515625 25.78125 7.859375 
z
" id="ArialMT-116"/>
       <path d="M 6.59375 0 
L 6.59375 51.859375 
L 14.5 51.859375 
L 14.5 44.484375 
Q 20.21875 53.03125 31 53.03125 
Q 35.6875 53.03125 39.625 51.34375 
Q 43.5625 49.65625 45.515625 46.921875 
Q 47.46875 44.1875 48.25 40.4375 
Q 48.734375 37.984375 48.734375 31.890625 
L 48.734375 0 
L 39.9375 0 
L 39.9375 31.546875 
Q 39.9375 36.921875 38.90625 39.578125 
Q 37.890625 42.234375 35.28125 43.8125 
Q 32.671875 45.40625 29.15625 45.40625 
Q 23.53125 45.40625 19.453125 41.84375 
Q 15.375 38.28125 15.375 28.328125 
L 15.375 0 
z
" id="ArialMT-110"/>
       <path d="M 23.390625 -21.046875 
Q 16.109375 -11.859375 11.078125 0.4375 
Q 6.0625 12.75 6.0625 25.921875 
Q 6.0625 37.546875 9.8125 48.1875 
Q 14.203125 60.546875 23.390625 72.796875 
L 29.6875 72.796875 
Q 23.78125 62.640625 21.875 58.296875 
Q 18.890625 51.5625 17.1875 44.234375 
Q 15.09375 35.109375 15.09375 25.875 
Q 15.09375 2.390625 29.6875 -21.046875 
z
" id="ArialMT-40"/>
       <path d="M 6.59375 0 
L 6.59375 51.859375 
L 14.453125 51.859375 
L 14.453125 44.578125 
Q 16.890625 48.390625 20.9375 50.703125 
Q 25 53.03125 30.171875 53.03125 
Q 35.9375 53.03125 39.625 50.640625 
Q 43.3125 48.25 44.828125 43.953125 
Q 50.984375 53.03125 60.84375 53.03125 
Q 68.5625 53.03125 72.703125 48.75 
Q 76.859375 44.484375 76.859375 35.59375 
L 76.859375 0 
L 68.109375 0 
L 68.109375 32.671875 
Q 68.109375 37.9375 67.25 40.25 
Q 66.40625 42.578125 64.15625 43.984375 
Q 61.921875 45.40625 58.890625 45.40625 
Q 53.421875 45.40625 49.796875 41.765625 
Q 46.1875 38.140625 46.1875 30.125 
L 46.1875 0 
L 37.40625 0 
L 37.40625 33.6875 
Q 37.40625 39.546875 35.25 42.46875 
Q 33.109375 45.40625 28.21875 45.40625 
Q 24.515625 45.40625 21.359375 43.453125 
Q 18.21875 41.5 16.796875 37.734375 
Q 15.375 33.984375 15.375 26.90625 
L 15.375 0 
z
" id="ArialMT-109"/>
       <path d="M 12.359375 -21.046875 
L 6.0625 -21.046875 
Q 20.65625 2.390625 20.65625 25.875 
Q 20.65625 35.0625 18.5625 44.09375 
Q 16.890625 51.421875 13.921875 58.15625 
Q 12.015625 62.546875 6.0625 72.796875 
L 12.359375 72.796875 
Q 21.53125 60.546875 25.921875 48.1875 
Q 29.6875 37.546875 29.6875 25.921875 
Q 29.6875 12.75 24.625 0.4375 
Q 19.578125 -11.859375 12.359375 -21.046875 
z
" id="ArialMT-41"/>
      </defs>
      <use xlink:href="#ArialMT-65"/>
      <use x="66.699219" xlink:href="#ArialMT-120"/>
      <use x="116.699219" xlink:href="#ArialMT-105"/>
      <use x="138.916016" xlink:href="#ArialMT-97"/>
      <use x="194.53125" xlink:href="#ArialMT-108"/>
      <use x="216.748047" xlink:href="#ArialMT-32"/>
      <use x="244.53125" xlink:href="#ArialMT-112"/>
      <use x="300.146484" xlink:href="#ArialMT-111"/>
      <use x="355.761719" xlink:href="#ArialMT-115"/>
      <use x="405.761719" xlink:href="#ArialMT-105"/>
      <use x="427.978516" xlink:href="#ArialMT-116"/>
      <use x="455.761719" xlink:href="#ArialMT-105"/>
      <use x="477.978516" xlink:href="#ArialMT-111"/>
      <use x="533.59375" xlink:href="#ArialMT-110"/>
      <use x="589.208984" xlink:href="#ArialMT-32"/>
      <use x="616.992188" xlink:href="#ArialMT-40"/>
      <use x="650.292969" xlink:href="#ArialMT-109"/>
      <use x="733.59375" xlink:href="#ArialMT-41"/>
     </g>
    </g>
   </g>
   <g id="matplotlib.axis_2">
    <g id="ytick_1">
     <g id="line2d_7">
      <path clip-path="url(#p05d58cd586)" d="M 68.805 322.652245 
L 347.805 322.652245 
" style="fill:none;stroke:#b0b0b0;stroke-linecap:square;stroke-width:0.8;"/>
     </g>
     <g id="line2d_8">
      <defs>
       <path d="M 0 0 
L -3.5 0 
" id="ma7ce200b2a" style="stroke:#000000;stroke-width:0.8;"/>
      </defs>
      <g>
       <use style="stroke:#000000;stroke-width:0.8;" x="68.805" xlink:href="#ma7ce200b2a" y="322.652245"/>
      </g>
     </g>
     <g id="text_5">
      <!-- 0 -->
      <g transform="translate(52.9075 328.378495)scale(0.16 -0.16)">
       <use xlink:href="#ArialMT-48"/>
      </g>
     </g>
    </g>
    <g id="ytick_2">
     <g id="line2d_9">
      <path clip-path="url(#p05d58cd586)" d="M 68.805 271.738506 
L 347.805 271.738506 
" style="fill:none;stroke:#b0b0b0;stroke-linecap:square;stroke-width:0.8;"/>
     </g>
     <g id="line2d_10">
      <g>
       <use style="stroke:#000000;stroke-width:0.8;" x="68.805" xlink:href="#ma7ce200b2a" y="271.738506"/>
      </g>
     </g>
     <g id="text_6">
      <!-- 500 -->
      <g transform="translate(35.1125 277.464756)scale(0.16 -0.16)">
       <defs>
        <path d="M 4.15625 18.75 
L 13.375 19.53125 
Q 14.40625 12.796875 18.140625 9.390625 
Q 21.875 6 27.15625 6 
Q 33.5 6 37.890625 10.78125 
Q 42.28125 15.578125 42.28125 23.484375 
Q 42.28125 31 38.0625 35.34375 
Q 33.84375 39.703125 27 39.703125 
Q 22.75 39.703125 19.328125 37.765625 
Q 15.921875 35.84375 13.96875 32.765625 
L 5.71875 33.84375 
L 12.640625 70.609375 
L 48.25 70.609375 
L 48.25 62.203125 
L 19.671875 62.203125 
L 15.828125 42.96875 
Q 22.265625 47.46875 29.34375 47.46875 
Q 38.71875 47.46875 45.15625 40.96875 
Q 51.609375 34.46875 51.609375 24.265625 
Q 51.609375 14.546875 45.953125 7.46875 
Q 39.0625 -1.21875 27.15625 -1.21875 
Q 17.390625 -1.21875 11.203125 4.25 
Q 5.03125 9.71875 4.15625 18.75 
z
" id="ArialMT-53"/>
       </defs>
       <use xlink:href="#ArialMT-53"/>
       <use x="55.615234" xlink:href="#ArialMT-48"/>
       <use x="111.230469" xlink:href="#ArialMT-48"/>
      </g>
     </g>
    </g>
    <g id="ytick_3">
     <g id="line2d_11">
      <path clip-path="url(#p05d58cd586)" d="M 68.805 220.824767 
L 347.805 220.824767 
" style="fill:none;stroke:#b0b0b0;stroke-linecap:square;stroke-width:0.8;"/>
     </g>
     <g id="line2d_12">
      <g>
       <use style="stroke:#000000;stroke-width:0.8;" x="68.805" xlink:href="#ma7ce200b2a" y="220.824767"/>
      </g>
     </g>
     <g id="text_7">
      <!-- 1000 -->
      <g transform="translate(26.215 226.551017)scale(0.16 -0.16)">
       <use xlink:href="#ArialMT-49"/>
       <use x="55.615234" xlink:href="#ArialMT-48"/>
       <use x="111.230469" xlink:href="#ArialMT-48"/>
       <use x="166.845703" xlink:href="#ArialMT-48"/>
      </g>
     </g>
    </g>
    <g id="ytick_4">
     <g id="line2d_13">
      <path clip-path="url(#p05d58cd586)" d="M 68.805 169.911028 
L 347.805 169.911028 
" style="fill:none;stroke:#b0b0b0;stroke-linecap:square;stroke-width:0.8;"/>
     </g>
     <g id="line2d_14">
      <g>
       <use style="stroke:#000000;stroke-width:0.8;" x="68.805" xlink:href="#ma7ce200b2a" y="169.911028"/>
      </g>
     </g>
     <g id="text_8">
      <!-- 1500 -->
      <g transform="translate(26.215 175.637278)scale(0.16 -0.16)">
       <use xlink:href="#ArialMT-49"/>
       <use x="55.615234" xlink:href="#ArialMT-53"/>
       <use x="111.230469" xlink:href="#ArialMT-48"/>
       <use x="166.845703" xlink:href="#ArialMT-48"/>
      </g>
     </g>
    </g>
    <g id="ytick_5">
     <g id="line2d_15">
      <path clip-path="url(#p05d58cd586)" d="M 68.805 118.997289 
L 347.805 118.997289 
" style="fill:none;stroke:#b0b0b0;stroke-linecap:square;stroke-width:0.8;"/>
     </g>
     <g id="line2d_16">
      <g>
       <use style="stroke:#000000;stroke-width:0.8;" x="68.805" xlink:href="#ma7ce200b2a" y="118.997289"/>
      </g>
     </g>
     <g id="text_9">
      <!-- 2000 -->
      <g transform="translate(26.215 124.723539)scale(0.16 -0.16)">
       <use xlink:href="#ArialMT-50"/>
       <use x="55.615234" xlink:href="#ArialMT-48"/>
       <use x="111.230469" xlink:href="#ArialMT-48"/>
       <use x="166.845703" xlink:href="#ArialMT-48"/>
      </g>
     </g>
    </g>
    <g id="ytick_6">
     <g id="line2d_17">
      <path clip-path="url(#p05d58cd586)" d="M 68.805 68.08355 
L 347.805 68.08355 
" style="fill:none;stroke:#b0b0b0;stroke-linecap:square;stroke-width:0.8;"/>
     </g>
     <g id="line2d_18">
      <g>
       <use style="stroke:#000000;stroke-width:0.8;" x="68.805" xlink:href="#ma7ce200b2a" y="68.08355"/>
      </g>
     </g>
     <g id="text_10">
      <!-- 2500 -->
      <g transform="translate(26.215 73.8098)scale(0.16 -0.16)">
       <use xlink:href="#ArialMT-50"/>
       <use x="55.615234" xlink:href="#ArialMT-53"/>
       <use x="111.230469" xlink:href="#ArialMT-48"/>
       <use x="166.845703" xlink:href="#ArialMT-48"/>
      </g>
     </g>
    </g>
    <g id="ytick_7">
     <g id="line2d_19">
      <path clip-path="url(#p05d58cd586)" d="M 68.805 17.169811 
L 347.805 17.169811 
" style="fill:none;stroke:#b0b0b0;stroke-linecap:square;stroke-width:0.8;"/>
     </g>
     <g id="line2d_20">
      <g>
       <use style="stroke:#000000;stroke-width:0.8;" x="68.805" xlink:href="#ma7ce200b2a" y="17.169811"/>
      </g>
     </g>
     <g id="text_11">
      <!-- 3000 -->
      <g transform="translate(26.215 22.896061)scale(0.16 -0.16)">
       <defs>
        <path d="M 4.203125 18.890625 
L 12.984375 20.0625 
Q 14.5 12.59375 18.140625 9.296875 
Q 21.78125 6 27 6 
Q 33.203125 6 37.46875 10.296875 
Q 41.75 14.59375 41.75 20.953125 
Q 41.75 27 37.796875 30.921875 
Q 33.84375 34.859375 27.734375 34.859375 
Q 25.25 34.859375 21.53125 33.890625 
L 22.515625 41.609375 
Q 23.390625 41.5 23.921875 41.5 
Q 29.546875 41.5 34.03125 44.421875 
Q 38.53125 47.359375 38.53125 53.46875 
Q 38.53125 58.296875 35.25 61.46875 
Q 31.984375 64.65625 26.8125 64.65625 
Q 21.6875 64.65625 18.265625 61.421875 
Q 14.84375 58.203125 13.875 51.765625 
L 5.078125 53.328125 
Q 6.6875 62.15625 12.390625 67.015625 
Q 18.109375 71.875 26.609375 71.875 
Q 32.46875 71.875 37.390625 69.359375 
Q 42.328125 66.84375 44.9375 62.5 
Q 47.5625 58.15625 47.5625 53.265625 
Q 47.5625 48.640625 45.0625 44.828125 
Q 42.578125 41.015625 37.703125 38.765625 
Q 44.046875 37.3125 47.5625 32.6875 
Q 51.078125 28.078125 51.078125 21.140625 
Q 51.078125 11.765625 44.234375 5.25 
Q 37.40625 -1.265625 26.953125 -1.265625 
Q 17.53125 -1.265625 11.296875 4.34375 
Q 5.078125 9.96875 4.203125 18.890625 
z
" id="ArialMT-51"/>
       </defs>
       <use xlink:href="#ArialMT-51"/>
       <use x="55.615234" xlink:href="#ArialMT-48"/>
       <use x="111.230469" xlink:href="#ArialMT-48"/>
       <use x="166.845703" xlink:href="#ArialMT-48"/>
      </g>
     </g>
    </g>
    <g id="text_12">
     <!-- Temperature (K) -->
     <g transform="translate(18.8475 228.06875)rotate(-90)scale(0.16 -0.16)">
      <defs>
       <path d="M 25.921875 0 
L 25.921875 63.140625 
L 2.34375 63.140625 
L 2.34375 71.578125 
L 59.078125 71.578125 
L 59.078125 63.140625 
L 35.40625 63.140625 
L 35.40625 0 
z
" id="ArialMT-84"/>
       <path d="M 42.09375 16.703125 
L 51.171875 15.578125 
Q 49.03125 7.625 43.21875 3.21875 
Q 37.40625 -1.171875 28.375 -1.171875 
Q 17 -1.171875 10.328125 5.828125 
Q 3.65625 12.84375 3.65625 25.484375 
Q 3.65625 38.578125 10.390625 45.796875 
Q 17.140625 53.03125 27.875 53.03125 
Q 38.28125 53.03125 44.875 45.953125 
Q 51.46875 38.875 51.46875 26.03125 
Q 51.46875 25.25 51.421875 23.6875 
L 12.75 23.6875 
Q 13.234375 15.140625 17.578125 10.59375 
Q 21.921875 6.0625 28.421875 6.0625 
Q 33.25 6.0625 36.671875 8.59375 
Q 40.09375 11.140625 42.09375 16.703125 
z
M 13.234375 30.90625 
L 42.1875 30.90625 
Q 41.609375 37.453125 38.875 40.71875 
Q 34.671875 45.796875 27.984375 45.796875 
Q 21.921875 45.796875 17.796875 41.75 
Q 13.671875 37.703125 13.234375 30.90625 
z
" id="ArialMT-101"/>
       <path d="M 6.5 0 
L 6.5 51.859375 
L 14.40625 51.859375 
L 14.40625 44 
Q 17.4375 49.515625 20 51.265625 
Q 22.5625 53.03125 25.640625 53.03125 
Q 30.078125 53.03125 34.671875 50.203125 
L 31.640625 42.046875 
Q 28.421875 43.953125 25.203125 43.953125 
Q 22.3125 43.953125 20.015625 42.21875 
Q 17.71875 40.484375 16.75 37.40625 
Q 15.28125 32.71875 15.28125 27.15625 
L 15.28125 0 
z
" id="ArialMT-114"/>
       <path d="M 40.578125 0 
L 40.578125 7.625 
Q 34.515625 -1.171875 24.125 -1.171875 
Q 19.53125 -1.171875 15.546875 0.578125 
Q 11.578125 2.34375 9.640625 5 
Q 7.71875 7.671875 6.9375 11.53125 
Q 6.390625 14.109375 6.390625 19.734375 
L 6.390625 51.859375 
L 15.1875 51.859375 
L 15.1875 23.09375 
Q 15.1875 16.21875 15.71875 13.8125 
Q 16.546875 10.359375 19.234375 8.375 
Q 21.921875 6.390625 25.875 6.390625 
Q 29.828125 6.390625 33.296875 8.421875 
Q 36.765625 10.453125 38.203125 13.9375 
Q 39.65625 17.4375 39.65625 24.078125 
L 39.65625 51.859375 
L 48.4375 51.859375 
L 48.4375 0 
z
" id="ArialMT-117"/>
       <path d="M 7.328125 0 
L 7.328125 71.578125 
L 16.796875 71.578125 
L 16.796875 36.078125 
L 52.34375 71.578125 
L 65.1875 71.578125 
L 35.15625 42.578125 
L 66.5 0 
L 54 0 
L 28.515625 36.234375 
L 16.796875 24.8125 
L 16.796875 0 
z
" id="ArialMT-75"/>
      </defs>
      <use xlink:href="#ArialMT-84"/>
      <use x="49.958984" xlink:href="#ArialMT-101"/>
      <use x="105.574219" xlink:href="#ArialMT-109"/>
      <use x="188.875" xlink:href="#ArialMT-112"/>
      <use x="244.490234" xlink:href="#ArialMT-101"/>
      <use x="300.105469" xlink:href="#ArialMT-114"/>
      <use x="333.40625" xlink:href="#ArialMT-97"/>
      <use x="389.021484" xlink:href="#ArialMT-116"/>
      <use x="416.804688" xlink:href="#ArialMT-117"/>
      <use x="472.419922" xlink:href="#ArialMT-114"/>
      <use x="505.720703" xlink:href="#ArialMT-101"/>
      <use x="561.335938" xlink:href="#ArialMT-32"/>
      <use x="589.119141" xlink:href="#ArialMT-40"/>
      <use x="622.419922" xlink:href="#ArialMT-75"/>
      <use x="689.119141" xlink:href="#ArialMT-41"/>
     </g>
    </g>
   </g>
   <g id="line2d_21">
    <path clip-path="url(#p05d58cd586)" d="M 81.486818 318.296288 
L 91.642428 316.655959 
L 126.425393 310.970163 
L 146.736613 307.934686 
L 171.363968 304.493777 
L 196.752993 301.160939 
L 219.857007 298.354779 
L 234.074861 296.841595 
L 246.261593 295.774219 
L 254.386081 295.27369 
L 272.412289 294.35619 
L 275.458972 294.062102 
L 286.376253 292.497973 
L 294.246851 291.085726 
L 300.086327 289.881432 
L 319.128096 286.396225 
L 329.283706 285.03058 
L 335.123182 284.385142 
L 335.123182 284.385142 
" style="fill:none;stroke:#1f77b4;stroke-linecap:square;stroke-width:1.5;"/>
   </g>
   <g id="line2d_22">
    <path clip-path="url(#p05d58cd586)" d="M 81.486818 318.22112 
L 86.069675 318.377833 
L 90.652531 318.534545 
L 95.235388 318.477624 
L 99.818244 318.023066 
L 104.401101 317.568508 
L 108.983958 317.114052 
L 113.566814 316.719165 
L 118.149671 316.405638 
L 122.732527 316.092213 
L 127.315384 315.778687 
L 131.89824 315.465262 
L 136.481097 315.151735 
L 141.063954 314.662657 
L 145.64681 314.108309 
L 150.229667 313.55396 
L 154.812523 312.999713 
L 159.39538 312.425304 
L 163.978236 311.842647 
L 168.561093 311.259889 
L 173.14395 310.67713 
L 177.726806 310.152413 
L 182.309663 309.635842 
L 186.892519 309.119373 
L 191.475376 308.602904 
L 196.058232 307.78523 
L 200.641089 306.728159 
L 205.223946 305.671087 
L 209.806802 304.614016 
L 214.389659 303.703882 
L 218.972515 303.084059 
L 223.555372 302.464235 
L 228.138228 301.844411 
L 232.721085 301.220819 
L 237.303942 300.375142 
L 241.886798 299.529465 
L 246.469655 298.68389 
L 251.052511 297.838212 
L 255.635368 297.17501 
L 260.218224 296.55875 
L 264.801081 295.942388 
L 269.383937 295.326027 
L 273.966794 294.709767 
L 278.549651 294.09422 
L 283.132507 293.671432 
L 287.715364 293.248542 
L 292.29822 292.825755 
L 296.881077 292.402967 
L 301.463933 292.156443 
L 306.04679 291.958796 
L 310.629647 291.761149 
L 315.212503 291.563501 
L 319.79536 291.448436 
L 324.378216 291.559326 
L 328.961073 291.670115 
L 333.543929 291.781005 
" style="fill:none;stroke:#1f77b4;stroke-dasharray:5.55,2.4;stroke-dashoffset:0;stroke-width:1.5;"/>
    <defs>
     <path d="M -3 3 
L 3 -3 
M -3 -3 
L 3 3 
" id="mf34ff5607d" style="stroke:#1f77b4;"/>
    </defs>
    <g clip-path="url(#p05d58cd586)">
     <use style="fill:#1f77b4;stroke:#1f77b4;" x="81.486818" xlink:href="#mf34ff5607d" y="318.22112"/>
     <use style="fill:#1f77b4;stroke:#1f77b4;" x="122.732527" xlink:href="#mf34ff5607d" y="316.092213"/>
     <use style="fill:#1f77b4;stroke:#1f77b4;" x="168.561093" xlink:href="#mf34ff5607d" y="311.259889"/>
     <use style="fill:#1f77b4;stroke:#1f77b4;" x="209.806802" xlink:href="#mf34ff5607d" y="304.614016"/>
     <use style="fill:#1f77b4;stroke:#1f77b4;" x="251.052511" xlink:href="#mf34ff5607d" y="297.838212"/>
     <use style="fill:#1f77b4;stroke:#1f77b4;" x="292.29822" xlink:href="#mf34ff5607d" y="292.825755"/>
    </g>
   </g>
   <g id="line2d_23">
    <path clip-path="url(#p05d58cd586)" d="M 81.486818 270.858989 
L 81.740708 269.830242 
L 83.51794 268.403302 
L 85.549062 267.047754 
L 87.834075 265.777658 
L 90.626867 264.487206 
L 93.67355 263.430785 
L 97.228014 262.429692 
L 103.57527 260.951754 
L 108.653075 259.989092 
L 110.430307 259.79361 
L 118.554795 259.152355 
L 129.979857 258.47309 
L 139.373796 258.223151 
L 149.529406 258.382433 
L 158.415565 258.828612 
L 174.918432 260.117428 
L 183.5507 261.033511 
L 190.405737 261.221384 
L 193.19853 261.25616 
L 200.815238 261.406567 
L 206.654713 260.856006 
L 212.748079 259.911856 
L 221.888129 257.608794 
L 233.820971 254.532311 
L 243.4688 252.649339 
L 249.562166 251.9886 
L 254.386081 251.991696 
L 256.671093 251.945702 
L 259.971667 251.839782 
L 264.541691 252.066967 
L 265.049472 252.043868 
L 267.334484 251.733258 
L 268.603935 251.801645 
L 273.42785 251.587934 
L 274.189521 251.502496 
L 276.474533 250.925932 
L 284.345131 249.368479 
L 285.614582 249.108802 
L 292.723509 248.058347 
L 295.262412 247.033604 
L 299.832437 245.683345 
L 301.609668 245.160994 
L 305.164132 243.382061 
L 308.464705 241.984375 
L 310.749717 241.081215 
L 313.54251 238.897688 
L 316.843084 236.625405 
L 320.651437 234.100908 
L 322.93645 232.319806 
L 325.729242 230.47817 
L 328.775925 228.711061 
L 332.584279 226.713887 
L 335.123182 225.537373 
L 335.123182 225.537373 
" style="fill:none;stroke:#ff7f0e;stroke-linecap:square;stroke-width:1.5;"/>
   </g>
   <g id="line2d_24">
    <path clip-path="url(#p05d58cd586)" d="M 81.486818 315.067014 
L 86.069675 312.22613 
L 90.652531 307.724031 
L 95.235388 301.014211 
L 99.818244 292.870966 
L 104.401101 282.265125 
L 108.983958 270.302535 
L 113.566814 258.501952 
L 118.149671 247.224661 
L 122.732527 238.174438 
L 127.315384 231.880889 
L 131.89824 226.333328 
L 136.481097 221.849457 
L 141.063954 218.724474 
L 145.64681 217.845397 
L 150.229667 217.375259 
L 154.812523 216.90502 
L 159.39538 219.326987 
L 163.978236 221.751193 
L 168.561093 224.189249 
L 173.14395 226.869857 
L 177.726806 229.550466 
L 182.309663 232.231074 
L 186.892519 234.806393 
L 191.475376 237.020835 
L 196.058232 239.235175 
L 200.641089 241.449617 
L 205.223946 243.135168 
L 209.806802 244.018928 
L 214.389659 244.902791 
L 218.972515 245.786551 
L 223.555372 245.633301 
L 228.138228 245.31621 
L 232.721085 244.999018 
L 237.303942 244.681927 
L 241.886798 242.621652 
L 246.469655 239.591368 
L 251.052511 238.133198 
L 255.635368 238.228101 
L 260.218224 239.932591 
L 264.801081 242.143164 
L 269.383937 244.643131 
L 273.966794 247.32995 
L 278.549651 250.107702 
L 283.132507 250.634761 
L 287.715364 250.928024 
L 292.29822 251.221186 
L 296.881077 250.667244 
L 301.463933 249.978585 
L 306.04679 249.289926 
L 310.629647 248.197113 
L 315.212503 246.86022 
L 319.79536 245.523327 
L 324.378216 244.048967 
L 328.961073 242.230838 
L 333.543929 240.412708 
" style="fill:none;stroke:#ff7f0e;stroke-dasharray:5.55,2.4;stroke-dashoffset:0;stroke-width:1.5;"/>
    <defs>
     <path d="M -3 3 
L 3 -3 
M -3 -3 
L 3 3 
" id="mb3608aa111" style="stroke:#ff7f0e;"/>
    </defs>
    <g clip-path="url(#p05d58cd586)">
     <use style="fill:#ff7f0e;stroke:#ff7f0e;" x="81.486818" xlink:href="#mb3608aa111" y="315.067014"/>
     <use style="fill:#ff7f0e;stroke:#ff7f0e;" x="104.401101" xlink:href="#mb3608aa111" y="282.265125"/>
     <use style="fill:#ff7f0e;stroke:#ff7f0e;" x="122.732527" xlink:href="#mb3608aa111" y="238.174438"/>
     <use style="fill:#ff7f0e;stroke:#ff7f0e;" x="154.812523" xlink:href="#mb3608aa111" y="216.90502"/>
     <use style="fill:#ff7f0e;stroke:#ff7f0e;" x="191.475376" xlink:href="#mb3608aa111" y="237.020835"/>
     <use style="fill:#ff7f0e;stroke:#ff7f0e;" x="232.721085" xlink:href="#mb3608aa111" y="244.999018"/>
     <use style="fill:#ff7f0e;stroke:#ff7f0e;" x="273.966794" xlink:href="#mb3608aa111" y="247.32995"/>
     <use style="fill:#ff7f0e;stroke:#ff7f0e;" x="315.212503" xlink:href="#mb3608aa111" y="246.86022"/>
    </g>
   </g>
   <g id="line2d_25">
    <path clip-path="url(#p05d58cd586)" d="M 81.486818 203.876223 
L 81.740708 201.78742 
L 83.77183 200.717934 
L 86.310733 199.63938 
L 89.357416 198.607114 
L 92.150209 197.868193 
L 96.212453 197.0457 
L 102.559709 196.034971 
L 108.653075 195.250212 
L 111.191978 195.0758 
L 122.363149 194.533966 
L 133.28043 194.174355 
L 139.881577 194.104425 
L 150.798857 194.253944 
L 159.177236 194.568229 
L 175.426212 195.456401 
L 183.5507 196.017887 
L 189.644066 195.684724 
L 192.94464 195.084339 
L 197.514664 194.253968 
L 200.815238 193.57513 
L 205.385262 191.632323 
L 211.732518 187.793351 
L 216.302543 183.616801 
L 218.841446 181.122446 
L 224.934812 174.479293 
L 228.743165 170.092391 
L 231.535958 166.905636 
L 238.644885 159.688161 
L 241.437678 156.873253 
L 246.007703 153.508074 
L 249.562166 151.028709 
L 252.101069 150.015957 
L 257.940545 147.820376 
L 259.717776 147.332995 
L 262.002789 147.195624 
L 267.080594 147.103699 
L 267.334484 147.137284 
L 268.096155 147.744079 
L 269.365606 148.261296 
L 272.158399 149.103606 
L 275.205082 149.818028 
L 275.966753 150.011503 
L 281.552338 152.628821 
L 285.106802 154.120038 
L 288.915156 157.309231 
L 292.469619 160.042903 
L 295.008522 161.600883 
L 300.594107 165.930289 
L 302.117449 166.845036 
L 310.749717 171.205857 
L 320.651437 173.34499 
L 322.682559 173.535889 
L 326.998694 174.414174 
L 330.045377 174.971122 
L 335.123182 175.865754 
L 335.123182 175.865754 
" style="fill:none;stroke:#2ca02c;stroke-linecap:square;stroke-width:1.5;"/>
   </g>
   <g id="line2d_26">
    <path clip-path="url(#p05d58cd586)" d="M 81.486818 308.820306 
L 86.069675 304.843128 
L 90.652531 299.291291 
L 95.235388 291.646796 
L 99.818244 282.561138 
L 104.401101 269.574468 
L 108.983958 255.134008 
L 113.566814 239.649715 
L 118.149671 225.906264 
L 122.732527 217.031999 
L 127.315384 209.282521 
L 131.89824 204.400402 
L 136.481097 199.518386 
L 141.063954 196.55266 
L 145.64681 194.706121 
L 150.229667 192.859581 
L 154.812523 192.174893 
L 159.39538 192.699407 
L 163.978236 193.223818 
L 168.561093 195.323094 
L 173.14395 197.526946 
L 177.726806 199.730798 
L 182.309663 202.715157 
L 186.892519 206.03677 
L 191.475376 209.081921 
L 196.058232 210.510458 
L 200.641089 211.938996 
L 205.223946 213.367534 
L 209.806802 213.458466 
L 214.389659 213.003908 
L 218.972515 212.54935 
L 223.555372 211.283023 
L 228.138228 209.767932 
L 232.721085 207.778325 
L 237.303942 205.104641 
L 241.886798 201.886282 
L 246.469655 198.477301 
L 251.052511 195.068219 
L 255.635368 192.285784 
L 260.218224 191.983356 
L 264.801081 194.256043 
L 269.383937 198.611103 
L 273.966794 203.331214 
L 278.549651 207.17683 
L 283.132507 208.967365 
L 287.715364 210.758001 
L 292.29822 212.503833 
L 296.881077 213.536873 
L 301.463933 214.569912 
L 306.04679 214.495884 
L 310.629647 214.298339 
L 315.212503 213.660288 
L 319.79536 212.776527 
L 324.378216 211.892664 
L 328.961073 210.948215 
L 333.543929 209.501959 
" style="fill:none;stroke:#2ca02c;stroke-dasharray:5.55,2.4;stroke-dashoffset:0;stroke-width:1.5;"/>
    <defs>
     <path d="M -3 3 
L 3 -3 
M -3 -3 
L 3 3 
" id="m1cc610d206" style="stroke:#2ca02c;"/>
    </defs>
    <g clip-path="url(#p05d58cd586)">
     <use style="fill:#2ca02c;stroke:#2ca02c;" x="81.486818" xlink:href="#m1cc610d206" y="308.820306"/>
     <use style="fill:#2ca02c;stroke:#2ca02c;" x="104.401101" xlink:href="#m1cc610d206" y="269.574468"/>
     <use style="fill:#2ca02c;stroke:#2ca02c;" x="118.149671" xlink:href="#m1cc610d206" y="225.906264"/>
     <use style="fill:#2ca02c;stroke:#2ca02c;" x="141.063954" xlink:href="#m1cc610d206" y="196.55266"/>
     <use style="fill:#2ca02c;stroke:#2ca02c;" x="182.309663" xlink:href="#m1cc610d206" y="202.715157"/>
     <use style="fill:#2ca02c;stroke:#2ca02c;" x="218.972515" xlink:href="#m1cc610d206" y="212.54935"/>
     <use style="fill:#2ca02c;stroke:#2ca02c;" x="255.635368" xlink:href="#m1cc610d206" y="192.285784"/>
     <use style="fill:#2ca02c;stroke:#2ca02c;" x="292.29822" xlink:href="#m1cc610d206" y="212.503833"/>
    </g>
   </g>
   <g id="line2d_27">
    <path clip-path="url(#p05d58cd586)" d="M 81.486818 23.592612 
L 105.098612 23.593297 
L 211.986409 23.702858 
L 225.950373 23.9858 
L 236.359873 24.429008 
L 244.738251 25.009959 
L 253.37052 25.813944 
L 257.686654 26.37703 
L 261.495008 26.903827 
L 265.303362 27.349818 
L 267.080594 27.746679 
L 267.334484 27.821945 
L 267.842265 28.288872 
L 268.857826 28.644344 
L 271.142838 29.107458 
L 278.759545 30.455548 
L 282.82179 31.212204 
L 285.868473 31.840751 
L 290.184607 32.962373 
L 302.87912 35.86966 
L 311.765278 37.522148 
L 319.381986 38.73523 
L 335.123182 40.986645 
L 335.123182 40.986645 
" style="fill:none;stroke:#d62728;stroke-linecap:square;stroke-width:1.5;"/>
   </g>
   <g id="line2d_28">
    <path clip-path="url(#p05d58cd586)" d="M 86.069675 22.025455 
L 90.652531 22.176974 
L 95.235388 22.328493 
L 99.818244 22.364744 
L 104.401101 22.364744 
L 108.983958 22.364744 
L 113.566814 22.364744 
L 118.149671 22.364744 
L 122.732527 22.364744 
L 127.315384 22.364744 
L 131.89824 22.364744 
L 136.481097 22.364744 
L 141.063954 22.364744 
L 145.64681 22.364744 
L 150.229667 22.364744 
L 154.812523 22.364744 
L 159.39538 22.364744 
L 163.978236 22.364744 
L 168.561093 22.364744 
L 173.14395 22.364744 
L 177.726806 22.364744 
L 182.309663 22.364744 
L 186.892519 22.364744 
L 191.475376 22.40853 
L 196.058232 22.489686 
L 200.641089 22.570843 
L 205.223946 22.651999 
L 209.806802 22.733156 
L 214.389659 22.818996 
L 218.972515 23.012468 
L 223.555372 23.205839 
L 228.138228 23.399311 
L 232.721085 23.592681 
L 237.303942 23.805704 
L 241.886798 24.044897 
L 246.469655 24.284192 
L 251.052511 24.523384 
L 255.635368 24.762577 
L 260.218224 25.001872 
L 264.801081 25.462336 
L 269.383937 25.9674 
L 273.966794 26.472464 
L 278.549651 26.977528 
L 283.132507 27.482491 
L 287.715364 28.071461 
L 292.29822 28.734358 
L 296.881077 29.397153 
L 301.463933 30.06005 
L 306.04679 30.722947 
L 310.629647 31.481154 
L 315.212503 32.260338 
L 319.79536 33.039522 
L 324.378216 33.90139 
L 328.961073 34.895633 
L 333.543929 35.889978 
" style="fill:none;stroke:#d62728;stroke-dasharray:5.55,2.4;stroke-dashoffset:0;stroke-width:1.5;"/>
    <defs>
     <path d="M -3 3 
L 3 -3 
M -3 -3 
L 3 3 
" id="m234ae190e7" style="stroke:#d62728;"/>
    </defs>
    <g clip-path="url(#p05d58cd586)">
     <use style="fill:#d62728;stroke:#d62728;" x="86.069675" xlink:href="#m234ae190e7" y="22.025455"/>
     <use style="fill:#d62728;stroke:#d62728;" x="127.315384" xlink:href="#m234ae190e7" y="22.364744"/>
     <use style="fill:#d62728;stroke:#d62728;" x="173.14395" xlink:href="#m234ae190e7" y="22.364744"/>
     <use style="fill:#d62728;stroke:#d62728;" x="214.389659" xlink:href="#m234ae190e7" y="22.818996"/>
     <use style="fill:#d62728;stroke:#d62728;" x="255.635368" xlink:href="#m234ae190e7" y="24.762577"/>
     <use style="fill:#d62728;stroke:#d62728;" x="301.463933" xlink:href="#m234ae190e7" y="30.06005"/>
    </g>
   </g>
   <g id="patch_3">
    <path d="M 68.805 333.36 
L 68.805 7.2 
" style="fill:none;stroke:#000000;stroke-linecap:square;stroke-linejoin:miter;stroke-width:0.8;"/>
   </g>
   <g id="patch_4">
    <path d="M 347.805 333.36 
L 347.805 7.2 
" style="fill:none;stroke:#000000;stroke-linecap:square;stroke-linejoin:miter;stroke-width:0.8;"/>
   </g>
   <g id="patch_5">
    <path d="M 68.805 333.36 
L 347.805 333.36 
" style="fill:none;stroke:#000000;stroke-linecap:square;stroke-linejoin:miter;stroke-width:0.8;"/>
   </g>
   <g id="patch_6">
    <path d="M 68.805 7.2 
L 347.805 7.2 
" style="fill:none;stroke:#000000;stroke-linecap:square;stroke-linejoin:miter;stroke-width:0.8;"/>
   </g>
   <g id="legend_1">
    <g id="patch_7">
     <path d="M 359.005 266.92 
L 517.245 266.92 
Q 520.445 266.92 520.445 263.72 
L 520.445 76.84 
Q 520.445 73.64 517.245 73.64 
L 359.005 73.64 
Q 355.805 73.64 355.805 76.84 
L 355.805 263.72 
Q 355.805 266.92 359.005 266.92 
z
" style="fill:#ffffff;opacity:0.8;stroke:#cccccc;stroke-linejoin:miter;"/>
    </g>
    <g id="line2d_29">
     <path d="M 362.205 86.12 
L 394.205 86.12 
" style="fill:none;stroke:#1f77b4;stroke-linecap:square;stroke-width:1.5;"/>
    </g>
    <g id="line2d_30"/>
    <g id="text_13">
     <!-- $T_{c}$ (Bamboo) -->
     <g transform="translate(407.005 91.72)scale(0.16 -0.16)">
      <defs>
       <path d="M 5.90625 72.90625 
L 67.578125 72.90625 
L 66.015625 64.59375 
L 39.984375 64.59375 
L 27.484375 0 
L 17.578125 0 
L 30.078125 64.59375 
L 4.296875 64.59375 
z
" id="DejaVuSans-Oblique-84"/>
       <path d="M 53.609375 52.59375 
L 51.8125 43.703125 
Q 48.578125 46.046875 44.9375 47.21875 
Q 41.3125 48.390625 37.40625 48.390625 
Q 33.109375 48.390625 29.21875 46.875 
Q 25.34375 45.359375 22.703125 42.578125 
Q 18.5 38.328125 16.203125 32.609375 
Q 13.921875 26.90625 13.921875 20.796875 
Q 13.921875 13.421875 17.609375 9.8125 
Q 21.296875 6.203125 28.8125 6.203125 
Q 32.515625 6.203125 36.6875 7.328125 
Q 40.875 8.453125 45.40625 10.6875 
L 43.703125 1.8125 
Q 39.796875 0.203125 35.671875 -0.609375 
Q 31.546875 -1.421875 27.203125 -1.421875 
Q 16.3125 -1.421875 10.453125 4.015625 
Q 4.59375 9.46875 4.59375 19.578125 
Q 4.59375 28.078125 7.640625 35.234375 
Q 10.6875 42.390625 16.703125 48.09375 
Q 20.796875 52 26.3125 54 
Q 31.84375 56 38.375 56 
Q 42.1875 56 45.9375 55.140625 
Q 49.703125 54.296875 53.609375 52.59375 
z
" id="DejaVuSans-Oblique-99"/>
       <path d="M 7.328125 0 
L 7.328125 71.578125 
L 34.1875 71.578125 
Q 42.390625 71.578125 47.34375 69.40625 
Q 52.296875 67.234375 55.09375 62.71875 
Q 57.90625 58.203125 57.90625 53.265625 
Q 57.90625 48.6875 55.421875 44.625 
Q 52.9375 40.578125 47.90625 38.09375 
Q 54.390625 36.1875 57.875 31.59375 
Q 61.375 27 61.375 20.75 
Q 61.375 15.71875 59.25 11.390625 
Q 57.125 7.078125 54 4.734375 
Q 50.875 2.390625 46.15625 1.1875 
Q 41.453125 0 34.625 0 
z
M 16.796875 41.5 
L 32.28125 41.5 
Q 38.578125 41.5 41.3125 42.328125 
Q 44.921875 43.40625 46.75 45.890625 
Q 48.578125 48.390625 48.578125 52.15625 
Q 48.578125 55.71875 46.875 58.421875 
Q 45.171875 61.140625 41.984375 62.140625 
Q 38.8125 63.140625 31.109375 63.140625 
L 16.796875 63.140625 
z
M 16.796875 8.453125 
L 34.625 8.453125 
Q 39.203125 8.453125 41.0625 8.796875 
Q 44.34375 9.375 46.53125 10.734375 
Q 48.734375 12.109375 50.140625 14.71875 
Q 51.5625 17.328125 51.5625 20.75 
Q 51.5625 24.75 49.515625 27.703125 
Q 47.46875 30.671875 43.828125 31.859375 
Q 40.1875 33.0625 33.34375 33.0625 
L 16.796875 33.0625 
z
" id="ArialMT-66"/>
       <path d="M 14.703125 0 
L 6.546875 0 
L 6.546875 71.578125 
L 15.328125 71.578125 
L 15.328125 46.046875 
Q 20.90625 53.03125 29.546875 53.03125 
Q 34.328125 53.03125 38.59375 51.09375 
Q 42.875 49.171875 45.625 45.671875 
Q 48.390625 42.1875 49.953125 37.25 
Q 51.515625 32.328125 51.515625 26.703125 
Q 51.515625 13.375 44.921875 6.09375 
Q 38.328125 -1.171875 29.109375 -1.171875 
Q 19.921875 -1.171875 14.703125 6.5 
z
M 14.59375 26.3125 
Q 14.59375 17 17.140625 12.84375 
Q 21.296875 6.0625 28.375 6.0625 
Q 34.125 6.0625 38.328125 11.0625 
Q 42.53125 16.0625 42.53125 25.984375 
Q 42.53125 36.140625 38.5 40.96875 
Q 34.46875 45.796875 28.765625 45.796875 
Q 23 45.796875 18.796875 40.796875 
Q 14.59375 35.796875 14.59375 26.3125 
z
" id="ArialMT-98"/>
      </defs>
      <use transform="translate(0 0.09375)" xlink:href="#DejaVuSans-Oblique-84"/>
      <use transform="translate(61.083984 -16.3125)scale(0.7)" xlink:href="#DejaVuSans-Oblique-99"/>
      <use transform="translate(102.304688 0.09375)" xlink:href="#ArialMT-32"/>
      <use transform="translate(130.087891 0.09375)" xlink:href="#ArialMT-40"/>
      <use transform="translate(163.388672 0.09375)" xlink:href="#ArialMT-66"/>
      <use transform="translate(230.087891 0.09375)" xlink:href="#ArialMT-97"/>
      <use transform="translate(285.703125 0.09375)" xlink:href="#ArialMT-109"/>
      <use transform="translate(369.003906 0.09375)" xlink:href="#ArialMT-98"/>
      <use transform="translate(424.619141 0.09375)" xlink:href="#ArialMT-111"/>
      <use transform="translate(480.234375 0.09375)" xlink:href="#ArialMT-111"/>
      <use transform="translate(535.849609 0.09375)" xlink:href="#ArialMT-41"/>
     </g>
    </g>
    <g id="line2d_31">
     <path d="M 362.205 109.32 
L 394.205 109.32 
" style="fill:none;stroke:#1f77b4;stroke-dasharray:5.55,2.4;stroke-dashoffset:0;stroke-width:1.5;"/>
    </g>
    <g id="line2d_32">
     <g>
      <use style="fill:#1f77b4;stroke:#1f77b4;" x="378.205" xlink:href="#mf34ff5607d" y="109.32"/>
     </g>
    </g>
    <g id="text_14">
     <!-- $T_{c}$ (Pavli) -->
     <g transform="translate(407.005 114.92)scale(0.16 -0.16)">
      <defs>
       <path d="M 7.71875 0 
L 7.71875 71.578125 
L 34.71875 71.578125 
Q 41.84375 71.578125 45.609375 70.90625 
Q 50.875 70.015625 54.4375 67.546875 
Q 58.015625 65.09375 60.1875 60.640625 
Q 62.359375 56.203125 62.359375 50.875 
Q 62.359375 41.75 56.546875 35.421875 
Q 50.734375 29.109375 35.546875 29.109375 
L 17.1875 29.109375 
L 17.1875 0 
z
M 17.1875 37.546875 
L 35.6875 37.546875 
Q 44.875 37.546875 48.734375 40.96875 
Q 52.59375 44.390625 52.59375 50.59375 
Q 52.59375 55.078125 50.3125 58.265625 
Q 48.046875 61.46875 44.34375 62.5 
Q 41.9375 63.140625 35.5 63.140625 
L 17.1875 63.140625 
z
" id="ArialMT-80"/>
       <path d="M 21 0 
L 1.265625 51.859375 
L 10.546875 51.859375 
L 21.6875 20.796875 
Q 23.484375 15.765625 25 10.359375 
Q 26.171875 14.453125 28.265625 20.21875 
L 39.796875 51.859375 
L 48.828125 51.859375 
L 29.203125 0 
z
" id="ArialMT-118"/>
      </defs>
      <use transform="translate(0 0.09375)" xlink:href="#DejaVuSans-Oblique-84"/>
      <use transform="translate(61.083984 -16.3125)scale(0.7)" xlink:href="#DejaVuSans-Oblique-99"/>
      <use transform="translate(102.304688 0.09375)" xlink:href="#ArialMT-32"/>
      <use transform="translate(130.087891 0.09375)" xlink:href="#ArialMT-40"/>
      <use transform="translate(163.388672 0.09375)" xlink:href="#ArialMT-80"/>
      <use transform="translate(230.087891 0.09375)" xlink:href="#ArialMT-97"/>
      <use transform="translate(285.703125 0.09375)" xlink:href="#ArialMT-118"/>
      <use transform="translate(335.703125 0.09375)" xlink:href="#ArialMT-108"/>
      <use transform="translate(357.919922 0.09375)" xlink:href="#ArialMT-105"/>
      <use transform="translate(380.136719 0.09375)" xlink:href="#ArialMT-41"/>
     </g>
    </g>
    <g id="line2d_33">
     <path d="M 362.205 132.52 
L 394.205 132.52 
" style="fill:none;stroke:#ff7f0e;stroke-linecap:square;stroke-width:1.5;"/>
    </g>
    <g id="line2d_34"/>
    <g id="text_15">
     <!-- $T_{w,c}$ (Bamboo) -->
     <g transform="translate(407.005 138.12)scale(0.16 -0.16)">
      <defs>
       <path d="M 8.5 54.6875 
L 17.390625 54.6875 
L 19.671875 10.6875 
L 40.09375 54.6875 
L 50.484375 54.6875 
L 53.515625 10.6875 
L 72.90625 54.6875 
L 81.890625 54.6875 
L 56.890625 0 
L 46.390625 0 
L 43.703125 45.3125 
L 22.796875 0 
L 12.203125 0 
z
" id="DejaVuSans-Oblique-119"/>
       <path d="M 11.71875 12.40625 
L 22.015625 12.40625 
L 22.015625 4 
L 14.015625 -11.625 
L 7.71875 -11.625 
L 11.71875 4 
z
" id="DejaVuSans-44"/>
      </defs>
      <use transform="translate(0 0.09375)" xlink:href="#DejaVuSans-Oblique-84"/>
      <use transform="translate(61.083984 -16.3125)scale(0.7)" xlink:href="#DejaVuSans-Oblique-119"/>
      <use transform="translate(118.334961 -16.3125)scale(0.7)" xlink:href="#DejaVuSans-44"/>
      <use transform="translate(154.223633 -16.3125)scale(0.7)" xlink:href="#DejaVuSans-Oblique-99"/>
      <use transform="translate(195.444336 0.09375)" xlink:href="#ArialMT-32"/>
      <use transform="translate(223.227539 0.09375)" xlink:href="#ArialMT-40"/>
      <use transform="translate(256.52832 0.09375)" xlink:href="#ArialMT-66"/>
      <use transform="translate(323.227539 0.09375)" xlink:href="#ArialMT-97"/>
      <use transform="translate(378.842773 0.09375)" xlink:href="#ArialMT-109"/>
      <use transform="translate(462.143555 0.09375)" xlink:href="#ArialMT-98"/>
      <use transform="translate(517.758789 0.09375)" xlink:href="#ArialMT-111"/>
      <use transform="translate(573.374023 0.09375)" xlink:href="#ArialMT-111"/>
      <use transform="translate(628.989258 0.09375)" xlink:href="#ArialMT-41"/>
     </g>
    </g>
    <g id="line2d_35">
     <path d="M 362.205 156.2 
L 394.205 156.2 
" style="fill:none;stroke:#ff7f0e;stroke-dasharray:5.55,2.4;stroke-dashoffset:0;stroke-width:1.5;"/>
    </g>
    <g id="line2d_36">
     <g>
      <use style="fill:#ff7f0e;stroke:#ff7f0e;" x="378.205" xlink:href="#mb3608aa111" y="156.2"/>
     </g>
    </g>
    <g id="text_16">
     <!-- $T_{w,c}$ (Pavli) -->
     <g transform="translate(407.005 161.8)scale(0.16 -0.16)">
      <use transform="translate(0 0.09375)" xlink:href="#DejaVuSans-Oblique-84"/>
      <use transform="translate(61.083984 -16.3125)scale(0.7)" xlink:href="#DejaVuSans-Oblique-119"/>
      <use transform="translate(118.334961 -16.3125)scale(0.7)" xlink:href="#DejaVuSans-44"/>
      <use transform="translate(154.223633 -16.3125)scale(0.7)" xlink:href="#DejaVuSans-Oblique-99"/>
      <use transform="translate(195.444336 0.09375)" xlink:href="#ArialMT-32"/>
      <use transform="translate(223.227539 0.09375)" xlink:href="#ArialMT-40"/>
      <use transform="translate(256.52832 0.09375)" xlink:href="#ArialMT-80"/>
      <use transform="translate(323.227539 0.09375)" xlink:href="#ArialMT-97"/>
      <use transform="translate(378.842773 0.09375)" xlink:href="#ArialMT-118"/>
      <use transform="translate(428.842773 0.09375)" xlink:href="#ArialMT-108"/>
      <use transform="translate(451.05957 0.09375)" xlink:href="#ArialMT-105"/>
      <use transform="translate(473.276367 0.09375)" xlink:href="#ArialMT-41"/>
     </g>
    </g>
    <g id="line2d_37">
     <path d="M 362.205 179.88 
L 394.205 179.88 
" style="fill:none;stroke:#2ca02c;stroke-linecap:square;stroke-width:1.5;"/>
    </g>
    <g id="line2d_38"/>
    <g id="text_17">
     <!-- $T_{w,h}$ (Bamboo) -->
     <g transform="translate(407.005 185.48)scale(0.16 -0.16)">
      <defs>
       <path d="M 55.71875 33.015625 
L 49.3125 0 
L 40.28125 0 
L 46.6875 32.671875 
Q 47.125 34.96875 47.359375 36.71875 
Q 47.609375 38.484375 47.609375 39.5 
Q 47.609375 43.609375 45.015625 45.890625 
Q 42.4375 48.1875 37.796875 48.1875 
Q 30.5625 48.1875 25.265625 43.296875 
Q 19.96875 38.421875 18.40625 30.328125 
L 12.5 0 
L 3.515625 0 
L 18.3125 75.984375 
L 27.296875 75.984375 
L 21.484375 46.09375 
Q 24.90625 50.6875 30.21875 53.34375 
Q 35.546875 56 41.40625 56 
Q 48.640625 56 52.609375 52.09375 
Q 56.59375 48.1875 56.59375 41.109375 
Q 56.59375 39.359375 56.375 37.359375 
Q 56.15625 35.359375 55.71875 33.015625 
z
" id="DejaVuSans-Oblique-104"/>
      </defs>
      <use transform="translate(0 0.09375)" xlink:href="#DejaVuSans-Oblique-84"/>
      <use transform="translate(61.083984 -16.3125)scale(0.7)" xlink:href="#DejaVuSans-Oblique-119"/>
      <use transform="translate(118.334961 -16.3125)scale(0.7)" xlink:href="#DejaVuSans-44"/>
      <use transform="translate(154.223633 -16.3125)scale(0.7)" xlink:href="#DejaVuSans-Oblique-104"/>
      <use transform="translate(201.323242 0.09375)" xlink:href="#ArialMT-32"/>
      <use transform="translate(229.106445 0.09375)" xlink:href="#ArialMT-40"/>
      <use transform="translate(262.407227 0.09375)" xlink:href="#ArialMT-66"/>
      <use transform="translate(329.106445 0.09375)" xlink:href="#ArialMT-97"/>
      <use transform="translate(384.72168 0.09375)" xlink:href="#ArialMT-109"/>
      <use transform="translate(468.022461 0.09375)" xlink:href="#ArialMT-98"/>
      <use transform="translate(523.637695 0.09375)" xlink:href="#ArialMT-111"/>
      <use transform="translate(579.25293 0.09375)" xlink:href="#ArialMT-111"/>
      <use transform="translate(634.868164 0.09375)" xlink:href="#ArialMT-41"/>
     </g>
    </g>
    <g id="line2d_39">
     <path d="M 362.205 203.56 
L 394.205 203.56 
" style="fill:none;stroke:#2ca02c;stroke-dasharray:5.55,2.4;stroke-dashoffset:0;stroke-width:1.5;"/>
    </g>
    <g id="line2d_40">
     <g>
      <use style="fill:#2ca02c;stroke:#2ca02c;" x="378.205" xlink:href="#m1cc610d206" y="203.56"/>
     </g>
    </g>
    <g id="text_18">
     <!-- $T_{w,h}$ (Pavli) -->
     <g transform="translate(407.005 209.16)scale(0.16 -0.16)">
      <use transform="translate(0 0.09375)" xlink:href="#DejaVuSans-Oblique-84"/>
      <use transform="translate(61.083984 -16.3125)scale(0.7)" xlink:href="#DejaVuSans-Oblique-119"/>
      <use transform="translate(118.334961 -16.3125)scale(0.7)" xlink:href="#DejaVuSans-44"/>
      <use transform="translate(154.223633 -16.3125)scale(0.7)" xlink:href="#DejaVuSans-Oblique-104"/>
      <use transform="translate(201.323242 0.09375)" xlink:href="#ArialMT-32"/>
      <use transform="translate(229.106445 0.09375)" xlink:href="#ArialMT-40"/>
      <use transform="translate(262.407227 0.09375)" xlink:href="#ArialMT-80"/>
      <use transform="translate(329.106445 0.09375)" xlink:href="#ArialMT-97"/>
      <use transform="translate(384.72168 0.09375)" xlink:href="#ArialMT-118"/>
      <use transform="translate(434.72168 0.09375)" xlink:href="#ArialMT-108"/>
      <use transform="translate(456.938477 0.09375)" xlink:href="#ArialMT-105"/>
      <use transform="translate(479.155273 0.09375)" xlink:href="#ArialMT-41"/>
     </g>
    </g>
    <g id="line2d_41">
     <path d="M 362.205 227.24 
L 394.205 227.24 
" style="fill:none;stroke:#d62728;stroke-linecap:square;stroke-width:1.5;"/>
    </g>
    <g id="line2d_42"/>
    <g id="text_19">
     <!-- $T_{r,h}$ (Bamboo) -->
     <g transform="translate(407.005 232.84)scale(0.16 -0.16)">
      <defs>
       <path d="M 44.578125 46.390625 
Q 43.21875 47.125 41.453125 47.515625 
Q 39.703125 47.90625 37.703125 47.90625 
Q 30.515625 47.90625 25.140625 42.453125 
Q 19.78125 37.015625 18.015625 27.875 
L 12.5 0 
L 3.515625 0 
L 14.203125 54.6875 
L 23.1875 54.6875 
L 21.484375 46.1875 
Q 25.046875 50.921875 30 53.453125 
Q 34.96875 56 40.578125 56 
Q 42.046875 56 43.453125 55.828125 
Q 44.875 55.671875 46.296875 55.28125 
z
" id="DejaVuSans-Oblique-114"/>
      </defs>
      <use transform="translate(0 0.09375)" xlink:href="#DejaVuSans-Oblique-84"/>
      <use transform="translate(61.083984 -16.3125)scale(0.7)" xlink:href="#DejaVuSans-Oblique-114"/>
      <use transform="translate(89.863281 -16.3125)scale(0.7)" xlink:href="#DejaVuSans-44"/>
      <use transform="translate(125.751953 -16.3125)scale(0.7)" xlink:href="#DejaVuSans-Oblique-104"/>
      <use transform="translate(172.851562 0.09375)" xlink:href="#ArialMT-32"/>
      <use transform="translate(200.634766 0.09375)" xlink:href="#ArialMT-40"/>
      <use transform="translate(233.935547 0.09375)" xlink:href="#ArialMT-66"/>
      <use transform="translate(300.634766 0.09375)" xlink:href="#ArialMT-97"/>
      <use transform="translate(356.25 0.09375)" xlink:href="#ArialMT-109"/>
      <use transform="translate(439.550781 0.09375)" xlink:href="#ArialMT-98"/>
      <use transform="translate(495.166016 0.09375)" xlink:href="#ArialMT-111"/>
      <use transform="translate(550.78125 0.09375)" xlink:href="#ArialMT-111"/>
      <use transform="translate(606.396484 0.09375)" xlink:href="#ArialMT-41"/>
     </g>
    </g>
    <g id="line2d_43">
     <path d="M 362.205 250.92 
L 394.205 250.92 
" style="fill:none;stroke:#d62728;stroke-dasharray:5.55,2.4;stroke-dashoffset:0;stroke-width:1.5;"/>
    </g>
    <g id="line2d_44">
     <g>
      <use style="fill:#d62728;stroke:#d62728;" x="378.205" xlink:href="#m234ae190e7" y="250.92"/>
     </g>
    </g>
    <g id="text_20">
     <!-- $T_{r,h}$ (Pavli) -->
     <g transform="translate(407.005 256.52)scale(0.16 -0.16)">
      <use transform="translate(0 0.09375)" xlink:href="#DejaVuSans-Oblique-84"/>
      <use transform="translate(61.083984 -16.3125)scale(0.7)" xlink:href="#DejaVuSans-Oblique-114"/>
      <use transform="translate(89.863281 -16.3125)scale(0.7)" xlink:href="#DejaVuSans-44"/>
      <use transform="translate(125.751953 -16.3125)scale(0.7)" xlink:href="#DejaVuSans-Oblique-104"/>
      <use transform="translate(172.851562 0.09375)" xlink:href="#ArialMT-32"/>
      <use transform="translate(200.634766 0.09375)" xlink:href="#ArialMT-40"/>
      <use transform="translate(233.935547 0.09375)" xlink:href="#ArialMT-80"/>
      <use transform="translate(300.634766 0.09375)" xlink:href="#ArialMT-97"/>
      <use transform="translate(356.25 0.09375)" xlink:href="#ArialMT-118"/>
      <use transform="translate(406.25 0.09375)" xlink:href="#ArialMT-108"/>
      <use transform="translate(428.466797 0.09375)" xlink:href="#ArialMT-105"/>
      <use transform="translate(450.683594 0.09375)" xlink:href="#ArialMT-41"/>
     </g>
    </g>
   </g>
  </g>
 </g>
 <defs>
  <clipPath id="p05d58cd586">
   <rect height="326.16" width="279" x="68.805" y="7.2"/>
  </clipPath>
 </defs>
</svg>
